<svg width="7134" height="2226" xmlns="http://www.w3.org/2000/svg" xmlns:xlink="http://www.w3.org/1999/xlink" overflow="hidden"><defs><clipPath id="clip0"><rect x="-943" y="218" width="7134" height="2226"/></clipPath><clipPath id="clip1"><rect x="-653" y="1839" width="294" height="293"/></clipPath><clipPath id="clip2"><rect x="-653" y="1839" width="294" height="293"/></clipPath><clipPath id="clip3"><rect x="-653" y="1839" width="294" height="293"/></clipPath><clipPath id="clip4"><rect x="-922" y="1615" width="829" height="830"/></clipPath><clipPath id="clip5"><rect x="-922" y="1615" width="829" height="830"/></clipPath><clipPath id="clip6"><rect x="-922" y="1615" width="829" height="830"/></clipPath></defs><g clip-path="url(#clip0)" transform="translate(943 -218)"><text fill="#FFFFFF" font-family="Avenir Next LT Pro,Avenir Next LT Pro_MSFontService,sans-serif" font-weight="400" font-size="202" transform="matrix(1 0 0 1 1107.98 990)">Extract1<tspan font-family="Avenir Next LT Pro Demi,Avenir Next LT Pro Demi_MSFontService,sans-serif" font-weight="600" font-size="165" x="-1150.68" y="263">Annotated</tspan><tspan font-family="Avenir Next LT Pro Demi,Avenir Next LT Pro Demi_MSFontService,sans-serif" font-weight="600" font-size="165" x="-1103.63" y="421">workflow</tspan><tspan font-size="202" x="28.0233" y="726">Lysate1</tspan><tspan font-family="Avenir Next LT Pro Demi,Avenir Next LT Pro Demi_MSFontService,sans-serif" font-weight="600" font-size="147" x="-113.362" y="-516">Sample Name</tspan></text><path d="M921.368 240.49C920.484 240.49 919.642 240.94 919.025 241.762 918.409 242.564 918.059 243.659 918.059 244.813 918.059 333.106 918.059 1744.9 918.059 2134.56 918.059 2160.79 926.034 2185.96 940.216 2204.5 954.397 2223.06 973.635 2233.49 993.695 2233.49 1244.67 2233.49 2034.06 2233.49 2034.06 2233.49L2034.06 320.667C2034.06 278.769 2008.14 244.793 1976.12 244.656L921.368 240.49Z" stroke="#FFFFFF" stroke-width="19.5297" stroke-linecap="round" stroke-linejoin="round" stroke-miterlimit="10" fill="none" fill-rule="evenodd"/><path d="M0.0554589-5.92549 1116.06-5.92549" stroke="#FFFFFF" stroke-width="19.7877" stroke-linecap="round" stroke-linejoin="round" stroke-miterlimit="10" fill="none" fill-rule="evenodd" transform="matrix(1 0 0 -1 918 636)"/><path d="M-851.017 765.393C-865.234 763.219-879.558 761.516-892.74 755.18-933.893 735.422-948.996 690.708-928.12 646.774-902.281 592.382-858.352 559.057-801.472 541.751-797.038 540.373-792.443 539.381-787.932 538.205-784.033 534.521-779.138 533.844-774.081 533.182-730.952 527.049-686.972 534.905-648.635 555.594-639.294 560.573-631.526 560.973-622.58 555.47-599.262 541.143-574.808 528.74-550.803 513.927-576.214 508.688-598.455 497.498-621.913 489.891-654.367 479.323-687.359 470.486-720.752 463.418-725.563 462.34-730.786 462.18-734.21 457.577-758.249 449.346-782.724 442.233-804.939 429.357-824.301 418.111-841.577 404.547-853.578 385.297-867.811 362.475-872.275 338.397-857.964 314.194-843.653 289.99-820.021 281.446-792.941 281.717-764.579 281.884-740.736 294.671-717.903 309.85-701.738 320.604-686.228 332.31-671.453 344.902-662.466 352.567-643.012 363.772-645.525 364.034-611.104 392.947-583.925 428.218-551.778 458.622-542.832 466.7-533.401 474.226-523.539 481.159-519.499 484.409-513.851 484.853-509.352 482.275-497.599 476.576-485.86 470.853-474.137 465.106-470.516 463.3-467.618 460.309-465.928 456.633-459.144 442.396-450.4 429.18-439.952 417.368-434.71 411.551-425.576 405.055-421.845 400.801-394.13 373.661-361.818 354.996-322.913 349.254-309.295 347.118-295.4 347.511-281.925 350.414-243.811 358.787-229.494 389.425-247.683 424.308-251.257 431.056-255.365 437.519-259.232 444.098-259.94 447.26-262.248 449.28-264.259 451.531-308.011 492.629-360.034 510.075-419.611 505.535-431.01 504.596-442.122 501.475-452.345 496.345-460.055 492.556-466.406 493.195-472.602 500.325-457.448 507.618-440.981 510.337-425.43 515.677-410.613 520.791-395.234 524.319-380.424 529.555-373.829 531.878-368.238 531.687-362.742 526.854-334.079 501.742-300.468 488.235-262.656 484.517-232.463 482.124-203.981 488.567-176.655 500.999-171.616 504.191-167.556 504.296-165.547 497.445-165.132 496.053-163.881 494.519-161.829 495.762-166.432 507.105-161.78 513.406-151.876 519.461-138.818 527.712-127.801 538.819-119.658 551.943-95.0162 590.256-108.202 632.633-150.25 650.107-168.147 657.544-186.956 659.662-206.183 658.675-208.049 660.088-210.272 660.953-212.601 661.176-232.139 660.004-251.374 655.78-269.605 648.653-290.389 640.161-310.301 629.987-328.173 616.043-342.782 604.665-356.369 592.216-367.153 577.199-372.1 569.978-379.546 564.835-388.049 562.763-398.657 560.036-409.509 558.12-419.354 552.904-420.709 552.785-500.128 515.65-498.217 517.999-510.757 529.475-503.614 547.672-495.582 563.223-485.756 580.748-479.83 652.395-491.5 681.253-496.503 696.446-506.641 709.434-520.166 717.976-534.319 723.983-547.021 721.117-558.648 711.706-574.309 697.288-581.129 678.663-583.255 658.14-585.96 631.919-585.678 605.893-575.404 580.93-574.556 579.367-574.9 577.41-576.227 576.228-589.731 584.217-604.341 590.698-617.256 600.2-620.063 602.638-622.187 605.767-623.415 609.277-635.687 636.515-652.078 661.704-672.01 683.959-704.492 717.93-742.629 743.168-787.606 757.511-804.12 763.092-821.34 766.317-838.754 767.089-842.421 767.495-846.133 767.113-849.64 765.97L-851.017 765.393Z" stroke="#FFFFFF" stroke-width="11.0289" stroke-linejoin="round" stroke-miterlimit="10" fill="none" fill-rule="evenodd"/><path d="M-779.233 400.061C-784.465 406.293-790.079 412.295-791.583 422.229-783.864 418.431-783.083 409.882-776.765 406.719-776.455 406.624-776.057 406.321-775.83 406.413-767.334 410.379-758.325 434.423-762.141 443.076-779.551 437.938-796.158 431.145-810.561 419.854-811.989 410.212-815.674 401.344-819.221 392.32-829.986 365.16-840.784 337.868-849.775 309.971-841.784 297.778-829.527 292.315-816.122 288.637-810.596 287.812-808.433 291.782-806.682 295.659-799.958 310.572-794.311 325.964-788.719 341.324-785.649 349.807-787.529 351.387-796.151 349.826-801.639 348.823-806.913 346.219-812.712 347.065-816.36 346.866-819.968 344.284-825.32 347.004-815.135 351.987-805.173 352.26-795.946 354.987-790.139 369.941-783.922 384.719-779.233 400.061Z" stroke="#FFFFFF" stroke-width="11.0289" stroke-linejoin="round" stroke-miterlimit="10" fill="none" fill-rule="evenodd"/><path d="M-824.375 554.946C-809.246 546.704-792.789 542.842-775.891 541.06-767.203 539.747-759.479 542.921-751.781 546.213-722.506 558.691-692.27 568.537-662.599 579.887-653.234 583.47-644.127 587.655-634.716 591.124-629.913 592.881-624.041 595.578-628.906 602.841-629.842 609.089-632.583 614.928-636.793 619.635-651.254 614.127-666.99 611.551-679.395 601.285-681.141 598.213-679.078 597.108-676.674 596.409-672.933 595.417-669.126 594.699-665.282 594.259-678.529 596.591-691.753 599.094-704.877 601.888-709.02 602.795-713.21 604.558-717.35 601.774-731.286 592.176-747.454 587.75-763.03 581.971-780.833 575.364-798.296 567.883-816.187 561.483-819.59 560.287-823.004 558.863-824.375 554.946Z" stroke="#FFFFFF" stroke-width="11.0289" stroke-linejoin="round" stroke-miterlimit="10" fill="none" fill-rule="evenodd"/><path d="M-207.225 654.042C-214.827 655.02-221.981 652.798-229.267 651.166-235.048 651.933-240.231 649.287-245.725 648.407-249.902 647.719-251.001 644.338-248.194 642.121-236.583 633.193-226.836 620.981-210.684 619.588-209.293 620.56-208.776 621.933-208.942 624.33-207.266 619.426-209.912 614.852-207.665 610.715-196.903 600.236-183.365 593.659-171.298 584.998-164.961 584.974-160.194 589.012-155.249 590.965-160.271 587.056-168.264 586.461-172.298 579.886-172.617 578.92-172.448 577.858-171.845 577.039-159.889 565.28-145.997 556.018-131.654 547.599-130.393 546.962-128.863 547.158-127.804 548.091-116.996 560.568-111.082 576.557-111.171 593.065-116.479 593.934-121.491 596.099-125.762 599.366-149.935 617.234-176.626 631.426-200.207 650.149-202.324 651.811-204.693 653.124-207.225 654.042Z" stroke="#FFFFFF" stroke-width="11.0289" stroke-linejoin="round" stroke-miterlimit="10" fill="none" fill-rule="evenodd"/><path d="M-789.761 750.231C-814.531 759.531-840.209 763.678-866.184 759.303-896.177 754.357-927.516 734.983-932.14 695.689-928.608 692.356-924.681 693.421-920.848 694.816-879.327 709.892-837.568 724.363-797.055 742.1-793.596 743.597-789.176 744.856-789.761 750.231Z" stroke="#FFFFFF" stroke-width="11.0289" stroke-linejoin="round" stroke-miterlimit="10" fill="none" fill-rule="evenodd"/><path d="M-379.504 557.693-385.396 556.373C-383.645 546.164-373.741 544.857-367.249 539.815-346.536 521.005-323.961 505.666-296.801 497.664-276.073 491.288-254.257 489.219-232.701 491.586-235.805 497.799-241.754 500.88-247.206 504.32-266.034 516.189-284.71 528.298-302.815 541.36-305.867 543.563-308.865 545.532-309.064 549.735-317.141 554.855-326.499 551.151-334.982 553.478-338.124 554.342-342.816 552.548-343.238 558.207-346.191 566.6-355.066 568.654-360.55 574.355-363.73 570.136-368.086 566.933-370.134 561.896-372.525 558.761-377.088 560.626-379.504 557.693Z" stroke="#FFFFFF" stroke-width="11.0289" stroke-linejoin="round" stroke-miterlimit="10" fill="none" fill-rule="evenodd"/><path d="M-628.87 602.871C-627.777 592.928-636.534 593.441-641.978 591.231-660.625 583.693-679.464 576.647-698.307 569.62-724.119 560.001-750.017 550.591-775.855 541.09-755.45 536.36-734.835 537.595-714.494 540.606-688.679 544.364-663.92 553.423-641.773 567.209-637.464 569.886-634.315 570.097-629.966 567.441-623.732 563.641-616.969 560.701-610.43 557.381-599.916 554.271-591.972 560.238-583.867 565.209-581.562 566.612-580.147 569.136-582.752 571.832-595.108 578.839-607.301 586.131-619.903 592.671-624.496 595.128-625.159 600.114-628.87 602.871Z" stroke="#FFFFFF" stroke-width="11.0289" stroke-linejoin="round" stroke-miterlimit="10" fill="none" fill-rule="evenodd"/><path d="M-824.376 554.944C-803.743 563.005-783.115 571.062-762.495 579.119-748.929 584.386-735.273 589.342-721.812 594.895-718.552 595.992-716.088 598.711-715.313 602.063-752.825 623.131-795.824 617.231-825.238 589.172-825.813 588.61-826.139 587.671-827.132 587.593-826.499 588.366-826.079 589.291-825.919 590.278-825.762 592.066-827.19 592.365-828.418 592.873-842.359 591.214-856.066 588.969-866.694 578.503-854.061 568.255-839.74 560.284-824.376 554.944Z" stroke="#FFFFFF" stroke-width="11.0289" stroke-linejoin="round" stroke-miterlimit="10" fill="none" fill-rule="evenodd"/><path d="M-700.206 700.321C-712.375 712.469-726.475 722.518-741.928 730.056-763.107 721.764-784.618 714.306-805.352 704.855-812.361 688.271-807.497 672.82-800.931 657.503-798.582 656.132-795.662 656.151-793.332 657.555-777.576 664.736-760.634 668.655-744.853 675.634-739.519 678.521-739.125 684.033-737.732 689.047-737.506 689.881-737.443 689.875-734.831 688.068-724.263 684.62-707.663 690.524-700.206 700.321Z" stroke="#FFFFFF" stroke-width="11.0289" stroke-linejoin="round" stroke-miterlimit="10" fill="none" fill-rule="evenodd"/><path d="M-588.076 494.454C-603.225 490.545-617.504 484.314-631.925 478.444-625.179 476.964-623.758 473.199-626.417 466.932-628.489 462.095-631.186 457.469-632.836 452.501-634.487 447.532-638.232 442.156-632.945 436.967L-619.629 449.52-617.733 447.593C-622.981 437.879-633.888 433.353-640.56 424.928-645.385 408.65-651.124 392.657-657.753 377.024-659.544 372.498-662.67 367.858-657.679 363.346-638.563 375.879-624.375 393.741-608.207 409.49-598.784 431.132-591.252 453.485-582.709 475.466-581.255 479.194-579.844 482.934-578.722 486.671-577.904 489.556-576.755 492.803-579.182 495.168-582.141 498.156-585.264 496.445-588.076 494.454Z" stroke="#FFFFFF" stroke-width="11.0289" stroke-linejoin="round" stroke-miterlimit="10" fill="none" fill-rule="evenodd"/><path d="M-866.667 578.466C-853.715 584.268-840.187 588.682-826.306 591.633-819.69 591.651-815.822 597.034-810.837 600.007-798.276 607.598-784.237 612.418-769.662 614.14-767.394 614.421-764.481 613.568-763.899 616.586-763.41 619.191-765.84 620.647-767.87 621.884-808.534 645.422-837.108 645.558-877.873 613.574-880.979 611.146-883.488 607.614-888.18 608.398-891.019 608.672-893.793 607.378-895.406 605.026-887.503 594.237-876.842 586.602-866.667 578.466Z" stroke="#FFFFFF" stroke-width="11.0289" stroke-linejoin="round" stroke-miterlimit="10" fill="none" fill-rule="evenodd"/><path d="M-789.76 750.232C-802.328 740.507-817.634 736.563-831.983 730.832-861.865 718.858-892.419 708.589-922.532 697.182-925.894 695.893-928.948 696.178-932.138 695.69-934.792 683.876-931.117 672.717-928.587 661.425-922.932 659.475-917.884 662.441-913.132 664.248-899.826 669.291-885.305 671.678-873.694 680.796-871.849 687.562-878.03 689.745-880.447 693.721-882.472 693.556-880.409 695.668-880.714 694.362-880.683 694.224-880.41 694.203-879.729 694.108-878.369 693.967-876.997 694.073-875.674 694.418-851.644 702.875-828.214 712.723-804.233 721.395-802.564 721.769-800.895 722.143-799.261 722.674-790.489 725.774-781.964 729.519-773.339 732.998-769.419 734.557-764 736.327-767.292 742.829L-789.76 750.232Z" stroke="#FFFFFF" stroke-width="11.0289" stroke-linejoin="round" stroke-miterlimit="10" fill="none" fill-rule="evenodd"/><path d="M-309.417 548.648C-315.74 545.293-310.561 543.628-308.252 542.062-290.836 530.331-273.329 518.744-255.848 507.089-248.137 501.943-240.431 496.793-232.733 491.643-216.895 495.604-200.493 497.422-185.393 504.311-183.517 505.144-181.509 505.387-180.59 507.45-187.862 513.121-195.996 517.486-203.806 522.336-206.774 524.167-210.161 526.399-213.547 522.732-214.452 522.076-214.05 519.547-214.512 520.227-224.438 535.626-239.93 546.619-257.744 550.903-274.79 555.47-292.835 554.681-309.417 548.648Z" stroke="#FFFFFF" stroke-width="11.0289" stroke-linejoin="round" stroke-miterlimit="10" fill="none" fill-rule="evenodd"/><path d="M-307.323 474.868C-319.652 481.572-332.045 488.097-345.987 490.955-347.136 489.711-347.571 487.962-347.136 486.325-341.528 471.969-335.293 458.042-322.304 448.578-320.038 448.405-318.705 449.632-317.489 452.585-317.741 447.723-320.874 444.217-319.26 440.144-310.782 429.916-305.312 417.654-297.405 407.03-292.634 404.259-287.032 403.27-281.6 404.239-285.104 401.928-290.774 406.433-293.957 401.12-289.817 385.219-280.192 372.546-270.019 360.182-269.365 359.38-268.178 359.79-267.249 360.246-257.821 363.183-252.254 369.999-248.726 378.833-267.083 403.882-281.909 431.208-298.303 457.44-301.681 462.85-306.9 467.641-307.323 474.868Z" stroke="#FFFFFF" stroke-width="11.0289" stroke-linejoin="round" stroke-miterlimit="10" fill="none" fill-rule="evenodd"/><path d="M-588.077 494.456C-580.53 496.58-578.177 495.003-581.404 486.856-589.787 465.633-597.633 444.22-605.498 422.804-607.067 418.575-610.116 414.51-608.236 409.527-586.704 431.799-566.815 455.703-542.96 475.711-535.621 481.892-532.917 491.366-531.099 500.559-529.859 506.9-535.022 509.415-539.764 508.765-556.571 506.805-572.914 501.964-588.077 494.456Z" stroke="#FFFFFF" stroke-width="11.0289" stroke-linejoin="round" stroke-miterlimit="10" fill="none" fill-rule="evenodd"/><path d="M-650.336 643.436C-656.197 653.672-662.039 663.913-671.122 671.777-672.978 672.579-675.079 672.604-676.955 671.852-694.238 665.134-712.091 659.856-729.031 652.246-732.792 650.817-735.981 648.189-738.101 644.769-739.613 633.108-734.856 623.655-727.631 615.065-723.267 612.062-718.922 613.015-714.326 614.684-696.245 621.251-678.522 628.769-660.209 634.665-655.811 636.022-651.359 637.968-650.336 643.436Z" stroke="#FFFFFF" stroke-width="11.0289" stroke-linejoin="round" stroke-miterlimit="10" fill="none" fill-rule="evenodd"/><path d="M-812.874 347.153C-805.085 344.422-798.158 350.14-790.425 349.5-788.628 342.582-793.45 337.501-795.507 331.863-799.715 319.989-804.368 308.264-809.142 296.614-810.463 293.307-812.162 289.75-816.306 288.822-801.88 284.361-787.378 284.991-772.866 288.242-770.861 290.527-767.221 290.661-765.89 293.93-768.159 319.614-760.254 342.421-745.266 363.433-767.771 355.813-790.577 352.663-812.874 347.153Z" stroke="#FFFFFF" stroke-width="11.0289" stroke-linejoin="round" stroke-miterlimit="10" fill="none" fill-rule="evenodd"/><path d="M-765.851 293.755C-768.869 292.92-771.401 290.855-772.826 288.067-755.208 291.725-740.208 301.087-724.906 309.836-721.265 311.729-719.1 315.635-719.429 319.725-720.486 342.462-713.511 364.861-699.734 382.978-742.156 372.938-758.821 342.929-762.342 304.791-762.64 301.239-758.408 295.422-765.851 293.755Z" stroke="#FFFFFF" stroke-width="11.0289" stroke-linejoin="round" stroke-miterlimit="10" fill="none" fill-rule="evenodd"/><path d="M-849.922 309.978C-844.41 313.914-844.616 320.633-842.475 326.083-831.434 353.944-820.847 381.993-810.464 410.12-809.423 412.931-806.042 416.803-810.712 419.881-841.294 403.666-869.882 366.12-860.944 331.102-859.031 323.273-855.25 316.023-849.922 309.978Z" stroke="#FFFFFF" stroke-width="11.0289" stroke-linejoin="round" stroke-miterlimit="10" fill="none" fill-rule="evenodd"/><path d="M-207.226 654.043C-202.107 646.754-194.327 642.496-187.34 637.544-165.817 622.484-143.68 608.366-121.678 593.93-118.363 591.744-115.068 588.728-111.177 593.086-113.995 631.165-148.238 651.357-180.285 653.005-189.303 653.397-198.225 655.111-207.226 654.043Z" stroke="#FFFFFF" stroke-width="11.0289" stroke-linejoin="round" stroke-miterlimit="10" fill="none" fill-rule="evenodd"/><path d="M-895.408 605.025-887.552 606.785C-883.454 606.074-881.696 609.458-879.429 611.677-862.709 628.087-841.938 635.256-819.332 638.01-817.045 638.296-814.308 637.404-813.167 639.948-811.815 643.118-814.514 645.133-816.64 646.245-826.766 651.586-834.513 661.586-847.107 662.105-866.469 652.88-886.773 645.836-906.748 638.432-910.557 637.022-914.574 636.081-915.73 631.388-909.534 622.051-903.849 612.415-895.408 605.025Z" stroke="#FFFFFF" stroke-width="11.0289" stroke-linejoin="round" stroke-miterlimit="10" fill="none" fill-rule="evenodd"/><path d="M-449.02 490.553C-464.848 480.098-474.604 493.731-486.359 499.801-489.234 501.219-491.796 506.213-495.729 502.775-500.21 498.843-495.217 495.981-493.823 492.519-489.193 481.058-480.57 474.699-469.463 470.505-465.41 468.856-462.221 465.594-460.662 461.505-449.013 435.468-430.76 414.293-410.267 394.898-407.61 392.88-404.734 391.165-401.697 389.785-395.911 393.144-400.589 396.716-402.043 399.525-410.123 415.245-420.392 429.691-429.499 444.934-431.9 448.933-434.856 452.643-434.698 457.649-433.986 463.212-443.949 464.053-440.528 470.78-439.066 479.171-444.522 484.652-449.02 490.553Z" stroke="#FFFFFF" stroke-width="11.0289" stroke-linejoin="round" stroke-miterlimit="10" fill="none" fill-rule="evenodd"/><path d="M-762.182 443.07C-763.164 429.768-768.253 417.095-776.745 406.809-768.83 393.939-756.512 387.562-742.652 383.511-738.673 385.268-737.012 388.899-735.534 392.613-730.934 403.563-727.031 414.771-722.454 425.736-721.389 427.452-721.381 429.627-722.433 431.351-726.484 437.373-730.55 443.371-734.566 449.422-735.499 450.821-736.58 452.704-738.342 451.546-745.568 446.792-755.339 449.347-762.182 443.07Z" stroke="#FFFFFF" stroke-width="11.0289" stroke-linejoin="round" stroke-miterlimit="10" fill="none" fill-rule="evenodd"/><path d="M-915.637 631.428C-899.019 637.894-882.368 644.306-865.787 650.846-858.835 653.599-850.9 654.635-846.114 661.44-852.413 671.973-862.237 679.943-873.84 683.937-876.142 679.668-880.395 678.86-884.567 677.41-899.323 672.207-913.965 666.864-928.686 661.504-927.252 650.131-920.781 641.042-915.637 631.428Z" stroke="#FFFFFF" stroke-width="11.0289" stroke-linejoin="round" stroke-miterlimit="10" fill="none" fill-rule="evenodd"/><path d="M-212.89 522.84C-205.519 523.171-201.276 517.027-195.463 514.37-190.46 512.108-186.88 506.806-180.518 507.406-171.817 510.409-163.755 515.012-156.748 520.981-156.758 525.722-160.321 526.161-163.754 526.753-168.715 527.539-170.425 532.044-173.179 535.222-181.101 544.302-190.772 551.688-201.618 556.94-218.431 565.342-234.277 560.307-250.361 555.693-253.676 554.744-257.416 551.555-251.653 549.217-237.33 543.372-225.902 533.97-215.66 522.776-215.094 521.996-213.885 522.308-212.89 522.84Z" stroke="#FFFFFF" stroke-width="11.0289" stroke-linejoin="round" stroke-miterlimit="10" fill="none" fill-rule="evenodd"/><path d="M-163.999 525.545C-161.147 524.882-158.603 523.27-156.788 520.973-145.229 527.743-135.326 537.009-127.802 548.091-143.907 556.548-157.853 568.17-171.95 579.448-176.665 582.084-180.317 578.502-184.212 577.196-192.724 574.32-200.886 570.429-209.308 567.243-212.275 566.125-216.969 562.681-211.258 560.846-191.321 554.34-177.972 539.677-163.999 525.545Z" stroke="#FFFFFF" stroke-width="11.0289" stroke-linejoin="round" stroke-miterlimit="10" fill="none" fill-rule="evenodd"/><path d="M-737.218 644.596C-719.788 655.265-699.665 659.34-681.19 667.459-677.868 668.925-674.517 670.357-671.163 671.768-679.738 682.428-688.736 692.58-700.244 700.314-708.051 694.75-717.482 692.843-726.017 688.868-729.093 687.604-732.64 688.216-735.114 690.44-741.26 687.31-740.454 680.767-741.054 675.806-742.271 665.222-745.418 654.04-737.218 644.596Z" stroke="#FFFFFF" stroke-width="11.0289" stroke-linejoin="round" stroke-miterlimit="10" fill="none" fill-rule="evenodd"/><path d="M-632.946 436.966C-634.228 443.608-631.957 449.397-629.026 455.189-626.729 459.628-624.798 464.248-623.252 469.001-619.928 479.666-620.845 480.533-631.921 478.423L-664.03 471.23C-667.152 470.53-670.842 470.797-672.722 467.22-665.26 466.499-663.275 463.809-666.066 455.924-671.176 441.91-676.404 427.87-681.357 413.705-673.077 407.31-665.828 409.842-658.622 415.973-650.208 423.158-641.51 429.995-632.946 436.966Z" stroke="#FFFFFF" stroke-width="11.0289" stroke-linejoin="round" stroke-miterlimit="10" fill="none" fill-rule="evenodd"/><path d="M-307.322 474.869C-309.929 472.697-311.182 470.189-308.841 467.104-289.177 441.192-274.979 411.787-256.521 385.089-254.479 382.144-253.355 378.229-248.581 378.742-240.231 393.482-244.281 407.692-250.999 421.387-263.196 446.002-283.385 462.474-307.322 474.869Z" stroke="#FFFFFF" stroke-width="11.0289" stroke-linejoin="round" stroke-miterlimit="10" fill="none" fill-rule="evenodd"/><path d="M-650.334 643.436C-663.119 634.034-679.226 632.653-693.086 625.753-700.502 622.03-708.411 619.866-716.026 616.757-719.359 615.227-723.138 614.966-726.649 616.027-728.819 614.694-730.04 612.228-729.788 609.694-726.773 605.44-721.836 605.041-717.384 604.223-707.918 602.384-698.584 599.752-688.995 598.559-685.918 598.176-682.416 596.259-679.757 599.763-668.826 605.671-657.265 610.335-645.296 613.67-641.703 614.308-638.58 616.521-636.788 619.701-639.516 628.507-644.14 636.609-650.334 643.436Z" stroke="#FFFFFF" stroke-width="11.0289" stroke-linejoin="round" stroke-miterlimit="10" fill="none" fill-rule="evenodd"/><path d="M-277.924 638.201C-284.671 634.627-292.301 632.69-298.206 627.47-292.141 615.773-276.26 606.379-267.103 609.049-265.752 610.754-266.422 612.914-265.834 614.799-265.929 612.922-265.413 611.078-265.571 609.207-266.162 602.64-268.266 596.105-266.214 589.429-258.644 579.576-247.437 574.847-237.111 568.89-234.67 567.68-231.792 567.704-229.371 568.954-220.909 576.294-213.608 584.302-214.16 596.615-229.415 604.458-243.842 613.823-257.215 624.567-263.624 629.607-271.671 632.568-277.924 638.201Z" stroke="#FFFFFF" stroke-width="11.0289" stroke-linejoin="round" stroke-miterlimit="10" fill="none" fill-rule="evenodd"/><path d="M-320.16 449.304C-332.487 460.503-341.437 474.933-345.989 490.953-356.344 495.563-367.346 497.264-378.526 498.1-383.692 498.696-385.477 495.615-383.586 491.687-380.098 484.404-377.452 476.088-368.597 473.018-367.154 472.929-364.308 474.68-365.836 470.729-367.149 467.382-368.444 463.958-366.484 460.272-358.102 449.095-352.358 436.254-344.14 424.978-331.454 425.242-320.757 436.136-320.16 449.304Z" stroke="#FFFFFF" stroke-width="11.0289" stroke-linejoin="round" stroke-miterlimit="10" fill="none" fill-rule="evenodd"/><path d="M-435.648 458.489C-439.951 452.658-435.029 448.914-432.568 444.742-422.387 427.899-412.148 411.101-401.851 394.351-400.871 392.735-400.464 391.383-401.795 389.868-394.848 380.122-383.467 376.546-374.072 370.237-370.613 368.301-366.985 366.683-363.234 365.405-360.727 369.493-362.641 373.066-364.635 376.537-373.848 392.622-382.665 408.961-393.618 423.976-396.066 427.126-397.655 430.855-398.229 434.802-399.29 439.534-403.224 441.541-406.791 443.835-415.755 449.914-425.452 454.838-435.648 458.489Z" stroke="#FFFFFF" stroke-width="11.0289" stroke-linejoin="round" stroke-miterlimit="10" fill="none" fill-rule="evenodd"/><path d="M-657.701 363.359C-658.96 367.78-657.497 371.654-655.819 375.763-650.432 388.54-645.536 401.392-640.478 414.261-639.29 417.728-639.319 421.497-640.562 424.946L-675.879 398.472C-679.743 378.344-689.806 360.292-695.774 340.991-697.011 337.311-699.893 333.881-697.594 329.694-683.344 339.733-669.16 350.067-657.701 363.359Z" stroke="#FFFFFF" stroke-width="11.0289" stroke-linejoin="round" stroke-miterlimit="10" fill="none" fill-rule="evenodd"/><path d="M-314.56 617.616C-323.586 612.152-331.805 605.452-338.974 597.71-340.887 593.363-338.472 590.501-335.24 588.503-319.697 578.868-305.423 567.258-289.189 558.685-277.197 564.898-271.578 575.17-270.367 588.269-287.211 594.87-300.161 607.292-314.56 617.616Z" stroke="#FFFFFF" stroke-width="11.0289" stroke-linejoin="round" stroke-miterlimit="10" fill="none" fill-rule="evenodd"/><path d="M-722.433 431.352-742.651 383.512C-726.089 371.445-712.913 383.245-699.333 390.103-690.79 394.409-683.013 400.111-673.155 406.279-693.259 409.757-708.337 419.62-722.433 431.352Z" stroke="#FFFFFF" stroke-width="11.0289" stroke-linejoin="round" stroke-miterlimit="10" fill="none" fill-rule="evenodd"/><path d="M-449.021 490.554C-449.494 482.632-440.001 477.911-442.218 469.392-442.767 465.495-439.387 464.581-437.149 462.876-427.396 455.43-416.424 449.906-406.153 443.277-397.997 437.989-391.395 440.004-385.342 449.073-395.468 465.366-405.222 481.929-415.622 497.975-427.817 500.213-438.066 493.854-449.021 490.554Z" stroke="#FFFFFF" stroke-width="11.0289" stroke-linejoin="round" stroke-miterlimit="10" fill="none" fill-rule="evenodd"/><path d="M-289.138 559.376C-302.125 570.305-316.509 579.272-330.807 588.319-334.484 590.651-338.583 592.558-338.978 597.729-347.718 591.357-353.99 582.713-360.548 574.335-360.168 569.326-356.201 567.451-352.681 565.084-349.16 562.718-345.347 561.716-344.361 557.317-344.322 555.604-342.904 554.216-341.191 554.212-325.291 551.556-309.121 550.917-293.062 552.31-288.686 552.754-284.382 553.615-289.138 559.376Z" stroke="#FFFFFF" stroke-width="11.0289" stroke-linejoin="round" stroke-miterlimit="10" fill="none" fill-rule="evenodd"/><path d="M-329.816 354.333C-317.443 352-304.812 351.361-292.267 352.433-294.593 358.039-299.176 362.414-304.885 364.476-309.034 365.32-307.773 369.356-308.923 371.821-315.805 387.083-325.766 400.763-338.177 412.001-344.397 417.578-352.546 418.785-360.031 421.542-362.499 422.433-365.553 422.718-367.148 419.803-368.496 417.438-366.879 415.285-365.4 413.471-355.357 401.14-349.336 386.691-343.553 372.106-338.04 366.927-334.635 360.1-329.816 354.333Z" stroke="#FFFFFF" stroke-width="11.0289" stroke-linejoin="round" stroke-miterlimit="10" fill="none" fill-rule="evenodd"/><path d="M-329.816 354.331C-331.177 362.152-334.469 368.654-342.071 372.21-346.427 375.358-347.192 380.797-348.705 385.16-354.567 402.12-365.487 415.327-378.196 427.226-383.962 432.616-390.967 436.636-399.575 435.656-402.406 430.897-399.661 427.388-396.935 423.873-384.629 408.069-376.058 389.88-365.32 373.064-363.952 370.917-363.868 367.966-363.167 365.297-352.82 359.613-341.3 357.079-329.816 354.331Z" stroke="#FFFFFF" stroke-width="11.0289" stroke-linejoin="round" stroke-miterlimit="10" fill="none" fill-rule="evenodd"/><path d="M-277.924 638.201C-271.157 625.487-256.509 622.519-246.562 613.466-240.03 608.008-232.973 603.212-225.494 599.15-222.38 597.142-218.674 596.25-214.986 596.617-209.191 603.71-206.395 611.39-210.006 620.418-223.69 623.87-233.033 634.46-244.503 641.564-245.889 642.408-247.659 643.311-247.382 645.208-247.027 647.763-244.549 647.658-242.731 648.106L-229.102 651.159C-236.953 653.525-243.976 649.89-251.025 647.754-260.265 645.086-269.039 641.346-277.924 638.201Z" stroke="#FFFFFF" stroke-width="11.0289" stroke-linejoin="round" stroke-miterlimit="10" fill="none" fill-rule="evenodd"/><path d="M-582.757 571.958C-585.552 562.525-595.386 563.89-601.72 559.666-604.049 558.093-607.572 558.17-610.435 557.508-597.915 546.824-582.614 540.662-568.479 532.712-559.844 527.862-552.186 521.018-542.375 518.287-539.669 517.532-536.567 513.257-534.601 516.172-532.634 519.088-531.757 525.574-534.345 527.366-552.574 539.967-559.972 564.337-582.757 571.958Z" stroke="#FFFFFF" stroke-width="11.0289" stroke-linejoin="round" stroke-miterlimit="10" fill="none" fill-rule="evenodd"/><path d="M-681.366 413.743C-672.372 423.863-670.983 437.27-666.144 449.182-665.072 451.595-664.255 454.116-663.703 456.699-663.001 460.466-658.436 464.211-661.562 467.759-664.687 471.308-669.002 467.371-672.842 467.295L-696.31 462.037C-701.612 450.537-704.365 438.062-708.909 426.216-700.845 419.402-691.884 414.665-681.366 413.743Z" stroke="#FFFFFF" stroke-width="11.0289" stroke-linejoin="round" stroke-miterlimit="10" fill="none" fill-rule="evenodd"/><path d="M-305.165 363.981C-301.126 359.854-297.77 354.996-292.266 352.434-283.974 355.282-274.437 353.953-267.177 360.117-277.437 372.907-286.11 386.89-293.006 401.766-293.618 406.063-297.457 405.43-300.107 405.846-309.01 407.379-317.813 409.573-326.793 410.531-330.532 410.931-334.983 409.438-331.06 405.182-319.812 392.997-313.142 378.136-305.165 363.981Z" stroke="#FFFFFF" stroke-width="11.0289" stroke-linejoin="round" stroke-miterlimit="10" fill="none" fill-rule="evenodd"/><path d="M-415.636 498.035C-415.097 489.37-409.223 483.22-404.957 476.421-399.06 467.038-394.953 456.347-386.102 448.966-374.731 450.318-366.198 461.387-366.936 473.884-375.966 477.368-377.442 486.813-382.296 493.563-383.934 495.815-380.787 497.324-378.522 498.079-390.762 500.644-403.403 500.629-415.636 498.035Z" stroke="#FFFFFF" stroke-width="11.0289" stroke-linejoin="round" stroke-miterlimit="10" fill="none" fill-rule="evenodd"/><path d="M-697.589 329.673C-690.418 348.666-683.069 367.595-676.299 386.725-675.018 390.209-671.178 394.43-675.874 398.452-690.325 394.369-695.897 381.591-702.726 370.369-712.397 354.714-716.98 337.518-714.333 318.518-707.296 320.713-702.769 325.729-697.589 329.673Z" stroke="#FFFFFF" stroke-width="11.0289" stroke-linejoin="round" stroke-miterlimit="10" fill="none" fill-rule="evenodd"/><path d="M-779.234 400.063C-787.925 386.414-793.626 371.079-795.964 355.067-774.015 359.551-752.278 364.71-729.331 375.79-750.274 378.688-765.232 388.474-779.234 400.063Z" stroke="#FFFFFF" stroke-width="11.0289" stroke-linejoin="round" stroke-miterlimit="10" fill="none" fill-rule="evenodd"/><path d="M-534.299 714.666C-551.824 712.802-562.02 702.062-568.461 686.533-574.771 671.343-579.078 655.858-577.202 639.202-574.692 633.701-572.325 633.448-568.907 638.998-564.954 645.473-561.565 652.254-557.778 658.919-553.58 666.417-549.455 673.962-545.493 681.593-544.804 683.397-546.582 685.721-544.333 687.278-539.792 692.419-537.373 698.654-534.28 704.544-532.615 707.701-530.674 711.374-534.299 714.666Z" stroke="#FFFFFF" stroke-width="11.0289" stroke-linejoin="round" stroke-miterlimit="10" fill="none" fill-rule="evenodd"/><path d="M-575.848 614.756C-577.597 600.381-570.838 588.16-565.877 575.494-565.162 573.592-564.423 571.86-563.701 570.021-562.861 569.455-561.826 569.259-560.838 569.481-559.85 569.702-558.996 570.32-558.478 571.191-553.285 580.047-545.693 587.77-544.917 598.854-547.925 601.418-551.508 600.657-555.165 600.683-553.263 601.398-551.359 601.185-549.563 601.732-538.898 609.36-534.647 620.397-532.926 632.786-537.768 639.208-543.787 642.418-551.951 639.826-557.931 628.772-561.535 616.415-570.302 606.202-573.158 608.367-572.154 613.273-575.848 614.756Z" stroke="#FFFFFF" stroke-width="11.0289" stroke-linejoin="round" stroke-miterlimit="10" fill="none" fill-rule="evenodd"/><path d="M-767.478 742.832C-767.68 736.002-773.329 735.994-777.941 734.301-785.554 731.461-793.197 728.202-800.784 725.058-804.673 718.392-810.056 711.947-804.24 703.66-783.77 709.319-764.745 718.943-744.727 725.882-743.521 726.296-742.939 728.489-742.071 729.859L-767.478 742.832Z" stroke="#FFFFFF" stroke-width="11.0289" stroke-linejoin="round" stroke-miterlimit="10" fill="none" fill-rule="evenodd"/><path d="M-575.849 614.756C-574.313 610.109-574.568 604.896-570.896 599.366-563.711 612.587-553.566 623.274-552.295 638.594-554.662 641.054-558.03 638.691-560.436 640.317-555.682 641.283-551.748 644.64-550.048 649.183-547.108 656.956-540.589 662.934-538.908 671.353-539.547 676.325-541.015 680.76-545.73 683.395-555.419 671.408-561.314 657.218-568.508 643.851-571.907 637.48-572.648 636.736-577.096 639.287-579.177 630.901-577.839 622.807-575.849 614.756Z" stroke="#FFFFFF" stroke-width="11.0289" stroke-linejoin="round" stroke-miterlimit="10" fill="none" fill-rule="evenodd"/><path d="M-537.729 536.675C-531.8 532.394-527.233 527.477-528.983 519.269-529.325 517.666-529.16 515.641-527.097 515.36-525.791 515.412-524.56 515.987-523.679 516.951-522.361 518.34-520.297 520.266-520.514 521.785-522.888 538-510.947 548.863-505.731 562.22-499.782 577.37-493.52 592.406-492.05 608.863-498.904 608.895-500.869 603.485-502.565 598.629-505.93 589.069-512.354 581.195-516.227 571.975-517.404 569.168-519.655 566.948-522.478 565.81-527.692 561.466-523.255 553.262-529.391 549.35-533.948 546.613-537.021 541.945-537.729 536.675Z" stroke="#FFFFFF" stroke-width="11.0289" stroke-linejoin="round" stroke-miterlimit="10" fill="none" fill-rule="evenodd"/><path d="M-314.561 617.617C-307.189 605.059-293.511 600.162-282.797 591.735-279.435 589.064-275.73 586.429-270.892 588.214-265.421 594.637-264.595 601.814-267.436 609.613-272.699 607.609-276.427 610.898-280.116 613.557-286.291 618.011-292.193 622.814-298.201 627.448-303.922 624.538-309.932 622.181-314.561 617.617Z" stroke="#FFFFFF" stroke-width="11.0289" stroke-linejoin="round" stroke-miterlimit="10" fill="none" fill-rule="evenodd"/><path d="M-490.76 640.007C-489.679 648.993-492.817 657.386-494.515 665.977-501.771 666.97-502.589 661.693-503.669 656.666-502.672 652.95-504.588 650.273-506.878 647.698-517.639 635.8-521.532 621.048-524.313 605.844-525.282 600.965-525.76 595.826-521.697 591.684-517.55 590.2-515.164 592.9-513.68 595.851-506.33 610.636-496.478 624.289-490.76 640.007Z" stroke="#FFFFFF" stroke-width="11.0289" stroke-linejoin="round" stroke-miterlimit="10" fill="none" fill-rule="evenodd"/><path d="M-490.758 640.007C-500.566 628.55-505.623 614.3-513.233 601.499-515.422 597.833-516.473 593.411-521.24 591.951-525.595 583.035-527.029 574.154-521.413 565.101-517.749 562.374-516.625 565.823-515.539 567.881-510.563 577.245-505.423 586.523-501.255 596.181-499.041 601.214-496.772 605.723-492.093 608.772-490.506 619.089-488.826 629.447-490.758 640.007Z" stroke="#FFFFFF" stroke-width="11.0289" stroke-linejoin="round" stroke-miterlimit="10" fill="none" fill-rule="evenodd"/><path d="M-367.25 539.811C-370.993 547.862-381.568 548.483-385.397 556.37L-424.233 545.607C-426.476 540.979-424.543 537.783-420.797 535.425-417.052 533.068-414.074 529.899-410.039 528.183-395.229 530.016-381.95 537.487-367.25 539.811Z" stroke="#FFFFFF" stroke-width="11.0289" stroke-linejoin="round" stroke-miterlimit="10" fill="none" fill-rule="evenodd"/><path d="M-545.477 598.873C-551.573 589.258-553.864 577.298-563.764 570.028-560.382 562.906-556.117 556.24-551.069 550.185-550.146 549.63-549.047 549.452-547.996 549.688-546.7 549.978-545.616 550.868-545.08 552.084-538.883 564.836-529.876 576.279-527.518 590.79-531.022 598.791-537.208 601.179-545.477 598.873Z" stroke="#FFFFFF" stroke-width="11.0289" stroke-linejoin="round" stroke-miterlimit="10" fill="none" fill-rule="evenodd"/><path d="M-502.576 655.921C-500.959 660.12-499.394 664.368-494.516 665.977-496.325 674.048-497.506 682.363-503.723 688.663L-504.946 687.77C-516.379 674.361-524.873 659.526-528.128 641.927-529.36 635.678-528.628 629.197-526.036 623.381-525.203 621.504-522.255 618.287-521.176 621.664-517.155 634.279-507.595 643.805-502.576 655.921Z" stroke="#FFFFFF" stroke-width="11.0289" stroke-linejoin="round" stroke-miterlimit="10" fill="none" fill-rule="evenodd"/><path d="M-708.892 426.137C-700.51 436.594-698.13 449.171-696.292 461.958-705.994 459.784-715.664 457.473-725.397 455.437-730.49 454.42-731.143 452.459-728.492 448.082-723.465 439.55-716.805 432.092-708.892 426.137Z" stroke="#FFFFFF" stroke-width="11.0289" stroke-linejoin="round" stroke-miterlimit="10" fill="none" fill-rule="evenodd"/><path d="M-503.724 688.663C-506.117 696.682-511.323 703.573-518.383 708.065-523.327 698.832-526.793 688.898-532.742 680.1-534.604 677.269-537.031 677.241-539.117 675.784-538.769 669.077-535.428 663.184-533.833 656.798-533.33 654.058-530.903 652.061-528.118 652.097-525.333 652.185-524.573 654.685-523.728 656.896-519.567 669.068-511.632 678.848-503.821 688.724L-503.724 688.663Z" stroke="#FFFFFF" stroke-width="11.0289" stroke-linejoin="round" stroke-miterlimit="10" fill="none" fill-rule="evenodd"/><path d="M-410.014 528.166C-411.464 531.966-413.707 535.444-417.846 536.518-422.768 537.684-423.353 541.677-424.233 545.605-432.356 543.29-437.42 536.897-443.18 531.399-449.391 525.825-455.289 519.913-460.846 513.685-443.598 517.797-426.35 521.269-410.014 528.166Z" stroke="#FFFFFF" stroke-width="11.0289" stroke-linejoin="round" stroke-miterlimit="10" fill="none" fill-rule="evenodd"/><path d="M-529.09 590.17C-535.783 576.502-539.817 561.368-551.068 550.186L-537.729 536.675C-533.643 539.426-533.297 545.794-527.706 547.17-524.043 559.725-523.906 572.646-524.096 585.555-524.096 587.948-523.11 593.304-529.09 590.17Z" stroke="#FFFFFF" stroke-width="11.0289" stroke-linejoin="round" stroke-miterlimit="10" fill="none" fill-rule="evenodd"/><path d="M-538.194 676.815C-536.321 676.554-534.673 672.881-532.503 676.544-526.609 686.505-518.628 695.532-518.438 708.032-522.82 712.495-527.903 715.295-534.385 714.771-534.696 703.915-541.893 696.178-546.815 687.403-542.94 684.559-542.873 678.737-538.194 676.815Z" stroke="#FFFFFF" stroke-width="11.0289" stroke-linejoin="round" stroke-miterlimit="10" fill="none" fill-rule="evenodd"/><path d="M-379.506 557.69C-376.308 558.881-372.141 557.959-370.127 561.854-373.351 560.596-377.498 561.523-379.506 557.69Z" stroke="#FFFFFF" stroke-width="11.0289" stroke-linejoin="round" stroke-miterlimit="10" fill="none" fill-rule="evenodd"/><path d="M-679.73 599.724C-696.699 601.821-714.016 603.262-729.738 611.207L-730.728 612.223C-736.703 614.865-743.223 615.982-749.13 618.784-764.198 624.544-779.215 630.358-793.295 638.34-794.051 638.86-794.844 639.324-795.668 639.727-817.988 651.236-839.17 664.823-858.939 680.309-865.527 685.227-870.792 691.884-878.48 695.359L-887.875 700.473C-883.77 692.276-878.381 688.472-873.863 683.957L-846.172 661.432-813.873 642.001C-843.101 638.979-867.506 627.779-887.552 606.788-886.091 602.661-884.334 603.653-881.932 606.191-863.057 626.239-839.466 635.091-812.35 636.216-806.732 636.472-801.154 635.134-796.264 632.354-786.114 626.997-775.61 622.276-763.474 616.436-788.861 615.327-808.462 605.512-826.499 591.572-827.782 587.448-834.002 586.859-833.871 581.671-831.422 579.394-829.938 581.603-828.805 582.806-808.483 604.868-782.311 612.876-753.533 612.476-744.308 612.356-735.101 607.345-725.984 604.211-722.487 603.056-719.177 601.446-715.402 601.9-696.216 597.454-677.111 592.453-657.447 591.764L-656.862 594.679-679.73 599.724Z" stroke="#FFFFFF" stroke-width="11.0289" stroke-linejoin="round" stroke-miterlimit="10" fill="none" fill-rule="evenodd"/><path d="M-267.394 609.623C-267.02 602.241-269.022 595.255-270.85 588.225-274.806 577.253-279.801 566.957-289.137 559.379-287.825 555.548-289.133 554.389-293.241 554.129-310.345 552.718-327.564 553.792-344.36 557.32-346.976 552.609-347.017 552.332-341.685 551.732-330.954 550.506-320.165 549.665-309.4 548.653-283.938 550.995-258.411 554.61-235.478 538.134-225.422 530.9-218.374 521.074-210.332 510.769-207.913 516.446-213.263 518.878-212.914 522.751-224.398 534.615-236.138 546.422-253.418 551.563-217.562 566.422-193.867 558.057-169.51 526.844-168.936 526.127-167.837 516.618-163.967 525.487-175.255 543.747-191.281 555.996-213.159 562.789L-171.951 579.445C-163.708 584.447-154.356 587.718-147.107 594.209L-148.243 596.43-171.307 585.776C-182.351 585.179-191.16 578.194-201.362 575.125-207.157 573.373-212.704 571.161-218.567 569.806-238.763 559.61-261.698 561.917-281.32 556.8-273.976 565.354-266.192 575.719-264.959 589.545-264.885 600.079-261.69 610.674-264.437 622.66-269.799 617.87-268.274 613.551-267.394 609.623Z" stroke="#FFFFFF" stroke-width="11.0289" stroke-linejoin="round" stroke-miterlimit="10" fill="none" fill-rule="evenodd"/><path d="M-218.644 566.924C-202.008 570.798-186.05 577.153-171.308 585.779-178.784 595.859-190.899 599.58-200.355 606.99-202.136 608.406-204.018 609.716-205.845 611.06-208.709 611.326-209.059 609.02-209.372 607.197-211.446 594.544-217.378 583.46-223.276 572.321-223.271 569.167-221.339 567.723-218.644 566.924Z" stroke="#FFFFFF" stroke-width="11.0289" stroke-linejoin="round" stroke-miterlimit="10" fill="none" fill-rule="evenodd"/><path d="M-221.928 572.375C-213.019 583.796-209.225 597.33-205.841 611.04-205.912 615.685-206.042 620.317-206.011 624.964-206 627.215-205.019 630.384-208.398 630.369-212.807 630.351-211.083 626.798-210.821 624.34-210.692 623.029-210.241 621.748-210.079 620.382-209.086 611.901-213.631 604.572-215.059 596.58-216.704 586.064-223.086 578.282-229.857 570.578-230.581 568.745-234.928 568.906-232.865 565.594-231.196 563.019-228.966 564.116-226.888 565.242-223.955 566.786-222.964 569.545-221.928 572.375Z" stroke="#FFFFFF" stroke-width="11.0289" stroke-linejoin="round" stroke-miterlimit="10" fill="none" fill-rule="evenodd"/><path d="M-795.488 637.726C-781.542 627.857-765.582 622.44-749.612 617.068-741.97 616.099-736.818 618.696-735.486 626.832-738.713 642.711-743.61 658.402-741.194 675.051-741.081 676.363-741.666 677.644-742.732 678.418-761.996 672.349-781.556 666.586-799.769 657.391-802.769 649.789-794.229 644.814-795.488 637.726Z" stroke="#FFFFFF" stroke-width="11.0289" stroke-linejoin="round" stroke-miterlimit="10" fill="none" fill-rule="evenodd"/><path d="M-795.489 637.725C-792.014 638.875-791.954 640.909-793.511 643.901-795.815 648.294-797.749 652.872-799.83 657.376-802.768 672.702-809.351 687.726-804.156 703.842-806.445 711.579-800.593 717.86-800.7 725.24L-804.628 724.36C-811.566 716.206-811.306 705.932-813.009 696.228-813.179 680.784-812.328 665.569-805.39 651.264-802.867 646.075-800.247 641.196-795.529 637.716L-795.489 637.725Z" stroke="#FFFFFF" stroke-width="11.0289" stroke-linejoin="round" stroke-miterlimit="10" fill="none" fill-rule="evenodd"/><path d="M-742.733 678.42C-745.561 660.482-741.517 643.26-737.185 626.04-735.936 620.463-735.412 614.537-729.738 611.209-729.626 611.224-729.514 611.243-729.404 611.267-727.423 611.711-726.157 613.709-726.601 615.69-726.625 615.8-726.656 615.909-726.69 616.017-732.023 624.767-735.598 634.476-737.217 644.594-740.675 660.03-741.103 675.382-735.113 690.439-734.956 692.866-732.863 695.583-736.798 697.96-740.45 691.8-740.619 684.73-742.733 678.42Z" stroke="#FFFFFF" stroke-width="11.0289" stroke-linejoin="round" stroke-miterlimit="10" fill="none" fill-rule="evenodd"/><path d="M-810.995 698.184-804.491 724.39C-829.198 714.998-854.392 706.487-878.441 695.449-873.751 688.415-866.551 684.171-860.177 678.916-843.051 683.207-826.059 688.189-810.995 698.184Z" stroke="#FFFFFF" stroke-width="11.0289" stroke-linejoin="round" stroke-miterlimit="10" fill="none" fill-rule="evenodd"/><path d="M-366.913 473.89C-369.566 462.715-375.587 454.148-386.08 448.972-393.643 442.596-400.708 440.621-409.799 447.783-419.972 455.816-431.373 462.336-442.195 469.399-444.94 468.392-446.43 466.945-443.516 464.525-440.98 462.411-438.284 460.499-435.648 458.492-425 448.708-409.918 445.921-399.591 435.633-370.833 425.474-356.852 402.372-346.967 375.651-345.772 372.433-345.772 372.433-342.076 372.23-346.036 389.905-354.99 404.831-367.604 419.989-349.697 418.123-337.625 410.082-327.643 397.469-317.789 385.298-310.694 371.131-306.854 355.95-302.738 358.934-305.22 361.637-305.137 364.027-309.488 381.057-319.298 394.925-332.232 409.208L-293.008 401.764C-286.626 401.997-280.127 400.421-271.009 403.083-280.97 407.038-288.883 405.719-296.281 407.259-310.433 414.091-326.361 413.658-339.882 418.96-331.237 423.64-321.151 428.973-318.374 441.433-316.717 446.651-313.656 451.585-314.515 457.993-319.679 456.65-318.888 452.29-320.212 449.271-324.878 438.244-331.279 428.89-343.746 425.437-360.472 420.927-372.341 432.292-387.255 437.923-379.293 446.017-368.61 450.349-366.312 461.63-365.011 465.674-363.623 469.698-362.438 473.799-361.931 475.583-361.123 478.054-364.31 478.103-367.008 478.179-367.059 475.92-366.913 473.89Z" stroke="#FFFFFF" stroke-width="11.0289" stroke-linejoin="round" stroke-miterlimit="10" fill="none" fill-rule="evenodd"/><path d="M-318.397 441.449C-325.107 432.46-331.846 423.505-343.607 419.571-328.159 411.833-312.239 409.542-296.305 407.275-302.257 419.574-308.322 431.827-318.397 441.449Z" stroke="#FFFFFF" stroke-width="11.0289" stroke-linejoin="round" stroke-miterlimit="10" fill="none" fill-rule="evenodd"/><path d="M-221.927 572.374C-223.764 570.539-225.544 568.635-227.434 566.851-228.639 565.694-230.386 564.56-231.48 566.501-231.923 567.371-230.461 569.225-229.87 570.636-243.209 570.246-250.683 581.421-261.215 586.547-262.564 587.415-263.818 588.418-264.959 589.545-271.609 578.259-274.795 565.047-284.9 555.379-262.172 557.769-239.473 557.162-218.6 566.912L-221.927 572.374Z" stroke="#FFFFFF" stroke-width="11.0289" stroke-linejoin="round" stroke-miterlimit="10" fill="none" fill-rule="evenodd"/><path d="M-366.238 461.666C-373.156 454.156-378.705 445.323-389.242 441.725-393.684 440.194-390.664 437.488-388.401 436.222-377.018 430.07-365.152 424.856-352.922 420.638-348.599 419.111-346.813 423.842-343.692 425.469-349.214 438.793-355.566 451.682-366.238 461.666Z" stroke="#FFFFFF" stroke-width="11.0289" stroke-linejoin="round" stroke-miterlimit="10" fill="none" fill-rule="evenodd"/><path d="M-538.191 676.815C-540.052 681.162-540.417 686.752-546.722 687.278-548.622 685.45-546.261 684.577-545.842 683.351L-540.799 670.044C-539.998 661.128-537.466 652.497-535.554 642.489-546.953 647.34-557.007 643.52-566.923 639.36-562.417 632.78-557.176 639.028-552.296 638.512-545.215 639.583-539.441 636.917-534.386 632.213-528.292 622.317-530.089 611.19-528.876 598.964-535.948 605.402-543.377 604.315-550.728 603.803-554.833 602.883-559.23 602.352-561.454 595.522-555.68 599.393-550.476 597.981-545.477 598.771-539.586 596.688-532 597.81-529.09 590.068-522.758 589.424-525.893 584.267-525.939 581.617-526.061 570.102-526.99 558.695-527.706 547.068-520.049 551.093-525.501 559.688-521.407 564.978-522.939 573.936-521.298 582.904-521.234 591.828-524.384 612.055-517.575 629.441-505.555 645.106-500.228 652.074-499.677 652.197-502.568 655.799-511.019 645.656-518.532 635.001-522.938 620.423-529.77 638.856-523.246 653.187-516.246 667.604-512.657 674.967-505.316 680.035-503.715 688.54-516.757 680.194-521.638 666.169-528.444 650.249-532.318 660.91-535.228 668.838-538.191 676.815Z" stroke="#FFFFFF" stroke-width="11.0289" stroke-linejoin="round" stroke-miterlimit="10" fill="none" fill-rule="evenodd"/><path d="M-550.726 603.885C-544.298 602.809-537.8 601.975-531.79 599.176-529.831 598.254-526.578 596.529-526.748 600.512-527.152 610.878-525.152 621.741-531.703 631.101-532.185 631.777-533.471 631.901-534.384 632.295-538.721 622.104-540.456 610.517-550.726 603.885Z" stroke="#FFFFFF" stroke-width="11.0289" stroke-linejoin="round" stroke-miterlimit="10" fill="none" fill-rule="evenodd"/><path d="M-566.916 639.32C-547.339 643.995-547.339 643.995-531.489 637.687-534.871 649.098-534.309 660.402-540.792 670.004-544.44 664.195-549.635 659.03-550.999 652.228-552.85 643.09-562.142 644.246-566.916 639.32Z" stroke="#FFFFFF" stroke-width="11.0289" stroke-linejoin="round" stroke-miterlimit="10" fill="none" fill-rule="evenodd"/><path d="M-810.993 698.184C-827.697 692.38-844.853 687.856-860.293 678.89-840.289 662.603-819.093 648.171-795.391 637.745-806.998 656.14-810.417 676.74-810.993 698.184Z" stroke="#FFFFFF" stroke-width="11.0289" stroke-linejoin="round" stroke-miterlimit="10" fill="none" fill-rule="evenodd"/><path d="M-729.736 611.209C-731.965 616.278-733.16 621.888-737.183 626.04-739.195 620.103-744.7 618.993-749.611 617.068-743.625 613.385-736.764 611.362-729.736 611.209Z" stroke="#FFFFFF" stroke-width="11.0289" stroke-linejoin="round" stroke-miterlimit="10" fill="none" fill-rule="evenodd"/><path d="M-660.331 967.202-622.012 966.906C-622.012 962.995-621.954 957.819-621.954 954.563-621.954 954.478-622.166 954.536-622.274 954.536L-660.331 954.536C-668.061 954.536-672.523 952.624-674.306 950.235-674.604 949.516-674.899 948.8-674.899 948.323-674.899 947.606-674.604 946.888-674.306 946.171-672.523 943.782-668.061 941.87-660.331 941.87L-629.997 942.083C-629.997 945.428-630.103 931.283-630.103 929.202L-660.331 929.202M-660.331 929.202C-674.306 929.202-683.523 933.744-687.982 939.718-689.768 942.347-690.955 945.215-690.955 948.323-690.955 951.191-689.768 954.059-687.982 956.688-683.523 962.662-674.306 967.202-660.331 967.202" stroke="#FFFFFF" stroke-width="14.187" stroke-miterlimit="8" fill="#FFFFFF" fill-rule="evenodd"/><path d="M-378.95 1271.93C-378.95 1331.93-437.018 1570.26-472.157 1596.9-482.877 1605.06-503.723 1605.54-515.039 1596.9-550.475 1570.5-608.248 1331.93-607.949 1271.93L-607.949 971.199-378.95 971.199-378.95 1271.93Z" stroke="#FFFFFF" stroke-width="13.6879" stroke-linejoin="round" stroke-miterlimit="10" fill="none" fill-rule="evenodd"/><path d="M-621.95 948.202-363.95 948.202-363.95 971.203-621.95 971.203Z" stroke="#FFFFFF" stroke-width="14.187" stroke-linecap="round" stroke-linejoin="round" stroke-miterlimit="10" fill="none" fill-rule="evenodd"/><path d="M-629.95 925.201-355.95 925.201-355.95 948.201-629.95 948.201Z" stroke="#FFFFFF" stroke-width="14.187" stroke-linecap="round" stroke-linejoin="round" stroke-miterlimit="10" fill="none" fill-rule="evenodd"/><path d="M-590.951 1028.2-466.951 1028.2-590.951 1028.2ZM-590.951 1184.08-466.951 1184.08-590.951 1184.08ZM-590.951 1340.2-466.951 1340.2-590.951 1340.2Z" stroke="#FFFFFF" stroke-width="13.6879" stroke-linejoin="round" stroke-miterlimit="10" stroke-opacity="0.8" fill="none" fill-rule="evenodd"/><path d="M746.321 834.663C745.073 832.637 743.473 832.449 742.146 834.171 740.827 835.895 740 839.25 740 842.901L740 1021.1C740 1024.75 740.827 1028.1 742.146 1029.83 743.473 1031.55 745.073 1031.36 746.321 1029.34L801.19 940.237C802.321 938.401 803 935.31 803 932.001 803 928.69 802.321 925.599 801.19 923.763L746.321 834.663ZM748.132 861.398 791.606 932.001C791.606 932.001 748.132 1002.6 748.132 1002.6L748.132 861.398Z" fill="#FFFFFF" fill-rule="evenodd"/><path d="M-27.9265 942 743.925 942C746.17 942 748 937.519 748 932.001 748 926.481 746.17 922 743.925 922L-27.9265 922C-30.1743 922-32 926.481-32 932.001-32 937.519-30.1743 942-27.9265 942Z" fill="#FFFFFF" fill-rule="evenodd"/><path d="M740.221 1575.66C738.992 1573.64 737.417 1573.45 736.112 1575.17 734.814 1576.89 734 1580.25 734 1583.9L734 1762.1C734 1765.75 734.814 1769.11 736.112 1770.83 737.417 1772.55 738.992 1772.36 740.221 1770.34L794.218 1681.24C795.332 1679.4 796 1676.31 796 1673 796 1669.69 795.332 1666.6 794.218 1664.76L740.221 1575.66ZM742.002 1602.4 784.787 1673C784.787 1673 742.002 1743.6 742.002 1743.6L742.002 1602.4Z" fill="#FFFFFF" fill-rule="evenodd"/><path d="M-27.9578 1683 737.957 1683C740.184 1683 742 1678.52 742 1673 742 1667.48 740.184 1663 737.957 1663L-27.9578 1663C-30.1883 1663-32 1667.48-32 1673-32 1678.52-30.1883 1683-27.9578 1683Z" fill="#FFFFFF" fill-rule="evenodd"/><g clip-path="url(#clip1)"><g clip-path="url(#clip2)"><g clip-path="url(#clip3)"><path d="M60.8334 42.5834 42.5834 42.5834 42.5834 249.417 249.417 249.417 249.417 231.167 60.8334 231.167Z" fill="#FFFFFF" transform="matrix(1 0 0 1.00342 -652 1839)"/><path d="M79.0834 106.458 112.542 106.458 112.542 212.917 79.0834 212.917Z" fill="#FFFFFF" transform="matrix(1 0 0 1.00342 -652 1839)"/><path d="M124.708 42.5834 158.167 42.5834 158.167 212.917 124.708 212.917Z" fill="#FFFFFF" transform="matrix(1 0 0 1.00342 -652 1839)"/><path d="M170.333 106.458 203.792 106.458 203.792 212.917 170.333 212.917Z" fill="#FFFFFF" transform="matrix(1 0 0 1.00342 -652 1839)"/><path d="M215.958 158.167 249.417 158.167 249.417 212.917 215.958 212.917Z" fill="#FFFFFF" transform="matrix(1 0 0 1.00342 -652 1839)"/></g></g></g><g clip-path="url(#clip4)"><g clip-path="url(#clip5)"><g clip-path="url(#clip6)"><path d="M655.5 517.5 172.5 517.5 172.5 224.25 655.5 224.25 655.5 517.5ZM707.25 207C707.25 188.025 691.725 172.5 672.75 172.5L155.25 172.5C136.275 172.5 120.75 188.025 120.75 207L120.75 569.25 707.25 569.25 707.25 207Z" fill="#FFFFFF" transform="matrix(1.00121 0 0 1 -922 1616)"/><path d="M465.75 603.75 465.75 612.375C465.75 617.55 462.3 621 457.125 621L370.875 621C365.7 621 362.25 617.55 362.25 612.375L362.25 603.75 17.25 603.75 17.25 621C17.25 639.975 32.775 655.5 51.75 655.5L776.25 655.5C795.225 655.5 810.75 639.975 810.75 621L810.75 603.75 465.75 603.75Z" fill="#FFFFFF" transform="matrix(1.00121 0 0 1 -922 1616)"/></g></g></g><text fill="#FFFFFF" font-family="Avenir Next LT Pro,Avenir Next LT Pro_MSFontService,sans-serif" font-weight="400" font-size="202" transform="matrix(1 0 0 1 2525.62 990)">Ath1.wiff<tspan font-family="Avenir Next LT Pro Demi,Avenir Next LT Pro Demi_MSFontService,sans-serif" font-weight="600" font-size="147" x="-74.6484" y="-516">Raw Data File</tspan></text><path d="M2359.37 240.49C2358.49 240.49 2357.64 240.94 2357.03 241.762 2356.41 242.564 2356.06 243.659 2356.06 244.813 2356.06 333.106 2356.06 1744.9 2356.06 2134.56 2356.06 2160.79 2364.04 2185.96 2378.24 2204.5 2392.43 2223.06 2411.68 2233.49 2431.76 2233.49 2682.96 2233.49 3473.06 2233.49 3473.06 2233.49L3473.06 320.667C3473.06 278.769 3447.12 244.793 3415.07 244.656L2359.37 240.49Z" stroke="#FFFFFF" stroke-width="19.5297" stroke-linecap="round" stroke-linejoin="round" stroke-miterlimit="10" fill="none" fill-rule="evenodd"/><path d="M0.0555086-5.92549 1117.06-5.92549" stroke="#FFFFFF" stroke-width="19.7877" stroke-linecap="round" stroke-linejoin="round" stroke-miterlimit="10" fill="none" fill-rule="evenodd" transform="matrix(1 0 0 -1 2356 636)"/><text fill="#FFFFFF" font-family="Avenir Next LT Pro,Avenir Next LT Pro_MSFontService,sans-serif" font-weight="400" font-size="202" transform="matrix(1 0 0 1 3916.88 990)">Proc1.csv<tspan font-family="Avenir Next LT Pro Demi,Avenir Next LT Pro Demi_MSFontService,sans-serif" font-weight="600" font-size="147" x="-15.1555" y="-587">Derived</tspan><tspan font-family="Avenir Next LT Pro Demi,Avenir Next LT Pro Demi_MSFontService,sans-serif" font-weight="600" font-size="147" x="562.918" y="-587">Data </tspan><tspan font-family="Avenir Next LT Pro Demi,Avenir Next LT Pro Demi_MSFontService,sans-serif" font-weight="600" font-size="147" x="313.24" y="-447">File</tspan></text><path d="M3798.37 240.49C3797.48 240.49 3796.64 240.94 3796.03 241.762 3795.41 242.564 3795.06 243.659 3795.06 244.813 3795.06 333.106 3795.06 1744.9 3795.06 2134.56 3795.06 2160.79 3803.03 2185.96 3817.22 2204.5 3831.4 2223.06 3850.64 2233.49 3870.69 2233.49 4121.67 2233.49 4911.06 2233.49 4911.06 2233.49L4911.06 320.667C4911.06 278.769 4885.14 244.793 4853.12 244.656L3798.37 240.49Z" stroke="#FFFFFF" stroke-width="19.5297" stroke-linecap="round" stroke-linejoin="round" stroke-miterlimit="10" fill="none" fill-rule="evenodd"/><path d="M0.0554589-5.92549 1116.06-5.92549" stroke="#FFFFFF" stroke-width="19.7877" stroke-linecap="round" stroke-linejoin="round" stroke-miterlimit="10" fill="none" fill-rule="evenodd" transform="matrix(1 0 0 -1 3795 636)"/><text fill="#FFFFFF" font-family="Avenir Next LT Pro Demi,Avenir Next LT Pro Demi_MSFontService,sans-serif" font-weight="600" font-size="165" transform="matrix(1 0 0 1 2065.06 1386)">OR<tspan font-size="165" x="1435.18" y="-9">OR</tspan><tspan font-family="Avenir Next LT Pro,Avenir Next LT Pro_MSFontService,sans-serif" font-weight="400" font-size="202" x="439.319" y="299">Ath2.wiff</tspan><tspan font-family="Avenir Next LT Pro,Avenir Next LT Pro_MSFontService,sans-serif" font-weight="400" font-size="202" x="1851.82" y="287">Proc2.csv</tspan><tspan font-size="165" x="3055.43" y="-480">Annotated</tspan><tspan font-size="165" x="3102.48" y="-322">workflow</tspan><tspan font-size="165" x="3337.65" y="-163">OR</tspan><tspan font-size="165" x="3047.69" y="-5">annotated </tspan><tspan font-size="165" x="2892.77" y="153">Computational</tspan><tspan font-size="165" x="3161.2" y="312">analysis</tspan></text><path d="M5885.32 475.664C5884.07 473.637 5882.47 473.449 5881.15 475.171 5879.83 476.895 5879 480.25 5879 483.901L5879 662.1C5879 665.75 5879.83 669.105 5881.15 670.829 5882.47 672.551 5884.07 672.363 5885.32 670.337L5940.19 581.237C5941.32 579.401 5942 576.31 5942 573.001 5942 569.69 5941.32 566.599 5940.19 564.763L5885.32 475.664ZM5887.13 502.398 5930.61 573.001C5930.61 573.001 5887.13 643.602 5887.13 643.602L5887.13 502.398Z" fill="#FFFFFF" fill-rule="evenodd"/><path d="M5111.07 583 5882.92 583C5885.17 583 5887 578.519 5887 573.001 5887 567.481 5885.17 563 5882.92 563L5111.07 563C5108.83 563 5107 567.481 5107 573.001 5107 578.519 5108.83 583 5111.07 583Z" fill="#FFFFFF" fill-rule="evenodd"/><path d="M5882.32 1865.66C5881.07 1863.64 5879.47 1863.45 5878.15 1865.17 5876.83 1866.89 5876 1870.25 5876 1873.9L5876 2052.1C5876 2055.75 5876.83 2059.11 5878.15 2060.83 5879.47 2062.55 5881.07 2062.36 5882.32 2060.34L5937.19 1971.24C5938.32 1969.4 5939 1966.31 5939 1963 5939 1959.69 5938.32 1956.6 5937.19 1954.76L5882.32 1865.66ZM5884.13 1892.4 5927.61 1963C5927.61 1963 5884.13 2033.6 5884.13 2033.6L5884.13 1892.4Z" fill="#FFFFFF" fill-rule="evenodd"/><path d="M5114.04 1973 5879.96 1973C5882.18 1973 5884 1968.52 5884 1963 5884 1957.48 5882.18 1953 5879.96 1953L5114.04 1953C5111.81 1953 5110 1957.48 5110 1963 5110 1968.52 5111.81 1973 5114.04 1973Z" fill="#FFFFFF" fill-rule="evenodd"/></g></svg>